<?xml version="1.0" standalone="no"?>
<!DOCTYPE svg PUBLIC "-//W3C//DTD SVG 20010904//EN"
 "http://www.w3.org/TR/2001/REC-SVG-20010904/DTD/svg10.dtd">
<svg version="1.0" xmlns="http://www.w3.org/2000/svg"
 width="489.000000pt" height="453.000000pt" viewBox="0 0 489.000000 453.000000"
 preserveAspectRatio="xMidYMid meet">

<g transform="translate(0.000000,453.000000) scale(0.100000,-0.100000)"
fill="#000000" stroke="none">
<path d="M1472 4515 c-161 -29 -291 -81 -426 -168 -291 -190 -474 -499 -507
-857 -7 -77 -9 -510 -6 -1290 3 -1036 5 -1186 20 -1265 74 -405 254 -672 552
-817 321 -155 749 -156 1065 0 196 96 399 305 500 513 l23 47 30 -57 c113
-214 307 -406 512 -509 178 -89 432 -130 630 -102 314 45 579 202 767 454 50
67 148 245 148 269 0 4 -43 7 -95 7 l-95 0 -21 -43 c-119 -234 -349 -419 -609
-488 -121 -32 -337 -33 -463 -1 -275 69 -512 266 -632 525 -19 40 -39 94 -46
120 l-11 47 -113 0 -113 0 -11 -47 c-31 -121 -117 -267 -226 -382 -88 -92
-167 -149 -286 -205 -147 -69 -207 -81 -399 -81 -142 0 -176 3 -244 23 -277
80 -484 254 -606 507 -56 117 -76 185 -90 312 -31 278 72 566 275 768 114 114
245 191 411 241 81 25 104 27 249 28 178 0 240 -11 373 -66 205 -85 407 -280
493 -473 l20 -45 89 0 c66 0 90 3 90 13 0 23 -71 161 -126 243 -142 214 -343
371 -573 448 -260 86 -499 86 -734 -2 -207 -78 -401 -215 -515 -367 -25 -33
-49 -64 -54 -69 -4 -6 -8 317 -8 717 l0 727 750 0 751 0 -3 88 -3 87 -749 3
-749 2 7 83 c20 226 87 397 224 563 130 158 326 275 534 318 88 18 266 21 354
5 197 -34 379 -133 519 -280 169 -178 246 -360 265 -624 16 -234 52 -381 131
-539 130 -260 379 -475 650 -561 170 -54 192 -55 870 -55 l629 0 0 90 0 89
-657 3 c-632 3 -661 4 -728 24 -320 95 -558 319 -660 619 -45 134 -58 334 -31
477 70 361 338 646 702 744 104 28 369 26 478 -4 313 -87 571 -342 667 -662
21 -70 23 -97 27 -432 l3 -358 90 0 91 0 -4 368 -4 367 -28 90 c-63 208 -154
364 -291 500 -233 234 -516 345 -845 332 -285 -11 -539 -120 -740 -317 -93
-92 -149 -167 -210 -282 l-46 -87 -28 57 c-102 208 -300 408 -506 512 -89 45
-219 88 -319 105 -101 18 -280 18 -379 0z"/>
<path d="M213 4358 c-199 -70 -203 -71 -203 -99 0 -18 7 -32 20 -39 17 -9 397
-140 407 -140 1 0 3 13 3 28 0 26 -5 30 -62 48 l-63 20 -3 76 -3 76 66 22 c60
20 65 24 65 51 0 17 -5 29 -12 28 -7 0 -104 -32 -215 -71z m47 -103 c0 -30 -3
-55 -6 -55 -3 0 -45 12 -92 27 l-86 27 79 27 c44 15 86 28 93 28 8 1 12 -16
12 -54z"/>
<path d="M390 3960 l0 -90 -191 0 -190 0 3 -27 3 -28 210 0 210 0 3 118 3 117
-26 0 c-25 0 -25 0 -25 -90z"/>
<path d="M148 3740 c-50 -15 -93 -48 -117 -90 -33 -59 -27 -152 12 -204 95
-124 315 -106 386 32 15 29 16 101 2 144 -31 94 -170 152 -283 118z m185 -79
c40 -25 61 -61 61 -106 0 -78 -67 -129 -169 -129 -105 1 -165 50 -165 135 0
39 5 53 29 77 16 15 44 34 63 40 48 16 141 8 181 -17z"/>
<path d="M217 3303 c-4 -3 -7 -35 -7 -70 0 -61 1 -63 25 -63 23 0 25 4 25 40
l0 40 65 0 65 0 0 -62 c0 -79 -24 -122 -83 -148 -91 -42 -189 -13 -228 67 -18
38 -21 56 -16 114 5 64 4 69 -14 69 -39 0 -52 -107 -23 -193 58 -171 321 -186
395 -22 21 45 25 139 8 198 l-10 37 -98 0 c-54 0 -101 -3 -104 -7z"/>
<path d="M10 2865 l0 -25 168 0 c158 -1 165 -2 137 -17 -16 -8 -92 -54 -168
-102 -131 -82 -138 -87 -135 -116 l3 -30 210 0 210 0 3 28 3 27 -168 0 c-164
1 -167 1 -139 18 16 9 90 55 165 102 115 72 136 89 139 113 l3 27 -215 0 -216
0 0 -25z"/>
<path d="M210 2441 l-195 -68 0 -34 0 -34 213 -72 212 -72 0 29 c0 26 -5 30
-65 50 l-66 22 3 75 3 75 60 23 c51 18 60 26 63 48 3 21 -1 27 -15 26 -10 0
-106 -31 -213 -68z m48 -157 c-2 -2 -44 10 -92 25 l-88 29 88 29 89 30 3 -55
c2 -30 2 -56 0 -58z"/>
<path d="M3536 2234 c-160 -29 -328 -98 -456 -188 -82 -58 -209 -183 -266
-262 l-44 -62 18 -43 c11 -24 29 -75 42 -112 l22 -69 40 74 c55 100 94 151
180 234 118 114 234 181 395 231 81 24 102 27 258 27 156 0 177 -3 258 -27
170 -52 303 -133 423 -258 85 -90 123 -143 174 -251 51 -107 80 -219 87 -340
l6 -98 -772 0 -771 0 0 -90 0 -90 849 0 849 0 6 28 c14 64 18 242 7 325 -67
500 -437 885 -935 972 -108 18 -264 18 -370 -1z"/>
<path d="M157 1986 c-112 -31 -164 -115 -143 -231 9 -48 67 -110 122 -131 68
-26 173 -15 226 22 61 43 80 85 76 165 -3 54 -9 73 -32 104 -50 65 -158 96
-249 71z m162 -74 c71 -36 97 -117 57 -178 -39 -59 -161 -82 -243 -45 -51 24
-76 60 -76 112 0 79 65 129 168 129 37 0 73 -7 94 -18z"/>
<path d="M12 1513 l3 -28 213 -3 212 -2 0 30 0 30 -216 0 -215 0 3 -27z"/>
<path d="M135 1404 c-81 -29 -125 -110 -125 -231 0 -112 -18 -103 221 -103
l209 0 0 76 c0 109 -16 160 -65 209 -61 62 -153 80 -240 49z m140 -55 c76 -21
115 -76 115 -164 l0 -55 -165 0 -165 0 0 55 c0 93 26 135 97 161 47 16 67 17
118 3z"/>
<path d="M18 974 c-5 -4 -8 -18 -8 -31 l0 -23 154 0 c142 0 155 -2 186 -22 41
-28 54 -69 35 -114 -21 -51 -43 -57 -218 -62 l-158 -4 3 -27 3 -26 155 1 c176
0 216 11 250 66 27 44 27 131 0 175 -35 58 -67 67 -240 71 -85 2 -158 0 -162
-4z"/>
<path d="M10 465 l0 -155 25 0 c24 0 25 2 25 65 l0 65 191 0 190 0 -3 28 -3
27 -187 3 -188 2 0 60 c0 57 -1 60 -25 60 l-25 0 0 -155z"/>
<path d="M286 279 c-41 -11 -61 -33 -86 -92 -29 -68 -47 -87 -81 -87 -47 0
-62 25 -56 96 4 55 2 63 -14 67 -26 7 -39 -20 -39 -83 0 -87 42 -140 111 -140
50 0 87 33 123 108 36 76 72 96 114 65 22 -16 28 -29 30 -71 2 -28 -2 -61 -9
-73 -9 -17 -8 -23 2 -30 37 -24 59 13 59 99 0 105 -67 167 -154 141z"/>
</g>
</svg>
